<?xml version="1.0" encoding="utf-8"?>
<!-- Generator: Adobe Illustrator 24.3.0, SVG Export Plug-In . SVG Version: 6.00 Build 0)  -->
<svg version="1.0" xmlns="http://www.w3.org/2000/svg" xmlns:xlink="http://www.w3.org/1999/xlink" x="0px" y="0px"
	 viewBox="0 0 566.9 566.9" style="enable-background:new 0 0 566.9 566.9;" xml:space="preserve">
<style type="text/css">
	.st0{display:none;fill:url(#SVGID_1_);}
	.st1{fill:#FFFFFF;}
	.st2{fill:url(#SVGID_2_);}
	.st3{fill:url(#SVGID_3_);}
</style>
<g id="Layer_4">
	<rect width="566.9" height="566.9"/>
</g>
<g id="Layer_7">
	<linearGradient id="SVGID_1_" gradientUnits="userSpaceOnUse" x1="315.7446" y1="226.4807" x2="316.4254" y2="441.6297">
		<stop  offset="0" style="stop-color:#FFFFFF"/>
		<stop  offset="0.1275" style="stop-color:#FCFCFC"/>
		<stop  offset="0.228" style="stop-color:#F2F2F2"/>
		<stop  offset="0.3192" style="stop-color:#E1E1E1"/>
		<stop  offset="0.4051" style="stop-color:#CACACA"/>
		<stop  offset="0.4871" style="stop-color:#ABABAB"/>
		<stop  offset="0.5663" style="stop-color:#868686"/>
		<stop  offset="0.6431" style="stop-color:#5A5A5A"/>
		<stop  offset="0.7163" style="stop-color:#282828"/>
		<stop  offset="0.7673" style="stop-color:#000000"/>
	</linearGradient>
	<polygon class="st0" points="328.9,231.4 328.9,370.3 316,362.9 303.1,370.3 303.1,231.4 316,224 316,224 316,224 	"/>
	<g>
		<polygon class="st1" points="283.5,224.3 283.4,224.3 283.4,224.3 		"/>
		<path class="st1" d="M298,125.2l120,69.3c4.4,2.5,7.1,7.2,7.1,12.3v73.6l-129.2-74.6v-79.4C295.9,125.4,297,124.7,298,125.2z"/>
		<linearGradient id="SVGID_2_" gradientUnits="userSpaceOnUse" x1="378.5358" y1="261.4746" x2="314.1954" y2="377.9001">
			<stop  offset="0" style="stop-color:#FFFFFF"/>
			<stop  offset="0.8461" style="stop-color:#000000"/>
		</linearGradient>
		<path class="st2" d="M308.4,288.2v0.2c0,4.2,2.1,8.3,6.2,10.7l40.3,22.7l70.1-41.3l-64.6-29.2l-46,26.6
			C310.5,280.1,308.4,284.2,308.4,288.2z"/>
		<path class="st1" d="M308.4,288.4v66.8c0,5.1,2.7,9.7,7.1,12.3l50.3,29c16.2-9.4,32.5-18.7,48.7-28.1c4.7-2.7,4.7-9.5,0-12.3
			L355,321.8l-40.3-22.7C310.5,296.8,308.4,292.6,308.4,288.4z"/>
		<polygon class="st1" points="283.5,363.2 283.4,363.3 283.4,363.2 283.4,363.2 		"/>
		<polygon class="st1" points="283.5,224.3 283.5,224.3 283.5,224.3 		"/>
		<path class="st1" d="M268.9,125.2l-120,69.3c-4.4,2.5-7.1,7.2-7.1,12.3v73.6l129.2-74.6v-79.4
			C271.1,125.4,269.9,124.7,268.9,125.2z"/>
		<linearGradient id="SVGID_3_" gradientUnits="userSpaceOnUse" x1="188.5581" y1="261.1859" x2="250.8559" y2="377.271">
			<stop  offset="0" style="stop-color:#FFFFFF"/>
			<stop  offset="0.8461" style="stop-color:#000000"/>
		</linearGradient>
		<path class="st3" d="M258.6,288.2v0.2c0,4.2-2.1,8.3-6.2,10.7L212,321.8l-70.1-41.3l64.6-29.2l46,26.6
			C256.5,280.1,258.5,284.2,258.6,288.2z"/>
		<path class="st1" d="M258.6,288.4v66.8c0,5.1-2.7,9.7-7.1,12.3l-50.3,29c-16.2-9.4-32.5-18.7-48.7-28.1c-4.7-2.7-4.7-9.5,0-12.3
			l59.5-34.4l40.3-22.7C256.5,296.8,258.6,292.6,258.6,288.4z"/>
		<path class="st1" d="M353.6,403.8l-13.2,7.5L290.5,440c-4.4,2.5-9.7,2.5-14.1,0l-10.9-6.3l-52.1-30l57.2-33.1l12.8-7.4l0.1-0.1
			l0.1,0.1l12.8,7.4L353.6,403.8z"/>
		<polygon class="st1" points="283.6,363.2 283.6,363.3 283.5,363.2 283.5,363.2 		"/>
	</g>
</g>
</svg>
