<svg width="912" height="912" viewBox="0 0 912 912" fill="none" xmlns="http://www.w3.org/2000/svg">
<g clip-path="url(#clip0_692_37)">
<path d="M486.12 99.1635L760.396 257.558C770.453 263.272 776.624 274.014 776.624 285.671V453.893L481.32 283.385V101.906C481.32 99.6206 483.835 98.0207 486.12 99.1635Z" fill="white"/>
<path d="M509.891 471.723V472.18C509.891 481.779 514.69 491.15 524.062 496.636L616.172 548.52L776.395 454.123L628.743 387.383L523.604 448.181C514.69 453.209 509.891 462.58 509.891 471.723Z" fill="url(#paint0_linear_692_37)"/>
<path d="M509.891 472.176V624.856C509.891 636.513 516.062 647.027 526.119 652.969L641.086 719.252C678.113 697.768 715.369 676.511 752.396 655.026C763.139 648.855 763.139 633.313 752.396 626.913L616.401 548.516L524.29 496.632C514.69 491.375 509.891 481.775 509.891 472.176Z" fill="white"/>
<path d="M452.978 643.141L452.75 643.369V643.141H452.978Z" fill="white"/>
<path d="M419.609 99.1635L145.333 257.558C135.277 263.272 129.105 274.014 129.105 285.671V453.893L424.409 283.385V101.906C424.638 99.6206 421.895 98.0207 419.609 99.1635Z" fill="white"/>
<path d="M396.065 471.723V472.18C396.065 481.779 391.265 491.15 381.894 496.636L289.555 548.52L129.332 454.123L276.984 387.383L382.123 448.181C391.265 453.209 395.837 462.58 396.065 471.723Z" fill="url(#paint1_linear_692_37)"/>
<path d="M396.062 472.176V624.856C396.062 636.513 389.891 647.027 379.834 652.969L264.867 719.252C227.84 697.768 190.584 676.511 153.557 655.026C142.814 648.855 142.814 633.313 153.557 626.913L289.552 548.287L381.663 496.403C391.262 491.375 396.062 481.775 396.062 472.176Z" fill="white"/>
<path d="M613.199 735.937L583.029 753.079L468.976 818.677C458.919 824.391 446.805 824.391 436.749 818.677L411.835 804.278L292.754 735.709L423.492 660.054L452.748 643.141L452.977 642.912L453.205 643.141L482.461 660.054L613.199 735.937Z" fill="white"/>
<path d="M453.205 643.141V643.369L452.977 643.141H453.205Z" fill="white"/>
</g>
<defs>
<linearGradient id="paint0_linear_692_37" x1="670.195" y1="410.638" x2="523.137" y2="676.744" gradientUnits="userSpaceOnUse">
<stop stop-color="white"/>
<stop offset="0.8461"/>
</linearGradient>
<linearGradient id="paint1_linear_692_37" x1="235.975" y1="409.978" x2="378.365" y2="675.306" gradientUnits="userSpaceOnUse">
<stop stop-color="white"/>
<stop offset="0.8461"/>
</linearGradient>
<clipPath id="clip0_692_37">
<rect width="912" height="912" fill="white"/>
</clipPath>
</defs>
</svg>
