<svg width="4348" height="764" viewBox="0 0 4348 764" fill="none" xmlns="http://www.w3.org/2000/svg">
<g clip-path="url(#clip0_685_128)">
<path d="M916.9 614C899.633 614 883.767 609.8 869.3 601.4C855.3 593 844.1 581.567 835.7 567.1C827.3 552.633 823.1 536.767 823.1 519.5V485.9H907.1V516.7C907.1 520.433 908.267 523.467 910.6 525.8C912.933 528.133 915.967 529.3 919.7 529.3H1229.1C1232.83 529.3 1235.87 528.133 1238.2 525.8C1241 523.467 1242.4 520.433 1242.4 516.7V416.6C1242.4 413.333 1241 410.533 1238.2 408.2C1235.87 405.867 1232.83 404.7 1229.1 404.7H916.9C899.633 404.7 883.767 400.5 869.3 392.1C855.3 383.233 844.1 371.8 835.7 357.8C827.3 343.333 823.1 327.467 823.1 310.2V204.5C823.1 187.233 827.3 171.367 835.7 156.9C844.1 142.433 855.3 131 869.3 122.6C883.767 114.2 899.633 110 916.9 110H1232.6C1249.87 110 1265.5 114.2 1279.5 122.6C1293.97 131 1305.4 142.433 1313.8 156.9C1322.67 171.367 1327.1 187.233 1327.1 204.5V238.1H1242.4V207.3C1242.4 203.567 1241 200.533 1238.2 198.2C1235.87 195.867 1232.83 194.7 1229.1 194.7H919.7C915.967 194.7 912.933 195.867 910.6 198.2C908.267 200.533 907.1 203.567 907.1 207.3V307.4C907.1 310.667 908.267 313.467 910.6 315.8C912.933 318.133 915.967 319.3 919.7 319.3H1232.6C1249.87 319.3 1265.5 323.733 1279.5 332.6C1293.97 341 1305.4 352.433 1313.8 366.9C1322.67 380.9 1327.1 396.533 1327.1 413.8V519.5C1327.1 536.767 1322.67 552.633 1313.8 567.1C1305.4 581.567 1293.97 593 1279.5 601.4C1265.5 609.8 1249.87 614 1232.6 614H916.9ZM1403.54 614V110H1488.24V319.3H1617.04L1792.74 110H1887.24V130.3L1692.64 362L1887.24 593.7V614H1792.74L1617.04 404.7H1488.24V614H1403.54ZM2160.85 614V425L1928.45 110H2027.85L2203.55 331.2L2377.85 110H2478.65L2245.55 425.7V614H2160.85ZM2932.01 614L2777.31 429.2H2887.21L3026.51 594.4V614H2932.01ZM2524.61 614V110.7H2934.11C2951.38 110.7 2967.01 115.133 2981.01 124C2995.48 132.4 3006.91 143.833 3015.31 158.3C3024.18 172.3 3028.61 187.933 3028.61 205.2V343.8C3028.61 360.6 3024.18 376.233 3015.31 390.7C3006.91 405.167 2995.48 416.6 2981.01 425C2967.01 433.4 2951.38 437.6 2934.11 437.6L2608.61 438.3V614H2524.61ZM2621.21 352.9H2930.61C2934.35 352.9 2937.38 351.733 2939.71 349.4C2942.51 347.067 2943.91 344.033 2943.91 340.3V207.3C2943.91 204.033 2942.51 201.233 2939.71 198.9C2937.38 196.1 2934.35 194.7 2930.61 194.7H2621.21C2617.95 194.7 2614.91 196.1 2612.11 198.9C2609.78 201.233 2608.61 204.033 2608.61 207.3V340.3C2608.61 344.033 2609.78 347.067 2612.11 349.4C2614.91 351.733 2617.95 352.9 2621.21 352.9ZM3096.65 614V110H3179.95V614H3096.65ZM3248.46 614V518.8L3634.16 194.7H3248.46V110H3752.46V205.2L3366.76 529.3H3752.46V614H3248.46ZM3823.36 614V518.8L4209.06 194.7H3823.36V110H4327.36V205.2L3941.66 529.3H4327.36V614H3823.36Z" fill="white"/>
<path d="M372.118 21.1635L646.394 179.558C656.451 185.272 662.622 196.014 662.622 207.671V375.893L367.318 205.385V23.9063C367.318 21.6206 369.833 20.0207 372.118 21.1635Z" fill="white"/>
<path d="M395.891 393.723V394.18C395.891 403.779 400.69 413.15 410.062 418.636L502.172 470.52L662.395 376.123L514.743 309.383L409.604 370.181C400.69 375.209 395.891 384.58 395.891 393.723Z" fill="url(#paint0_linear_685_128)"/>
<path d="M395.891 394.176V546.856C395.891 558.513 402.062 569.027 412.119 574.969L527.086 641.252C564.113 619.768 601.369 598.511 638.396 577.026C649.139 570.855 649.139 555.313 638.396 548.913L502.401 470.516L410.29 418.632C400.69 413.375 395.891 403.775 395.891 394.176Z" fill="white"/>
<path d="M338.976 565.141L338.748 565.369V565.141H338.976Z" fill="white"/>
<path d="M305.607 21.1635L31.3315 179.558C21.2747 185.272 15.1035 196.014 15.1035 207.671V375.893L310.407 205.385V23.9063C310.636 21.6206 307.893 20.0207 305.607 21.1635Z" fill="white"/>
<path d="M282.063 393.723V394.18C282.063 403.779 277.263 413.15 267.892 418.636L175.553 470.52L15.3301 376.123L162.982 309.383L268.121 370.181C277.263 375.209 281.835 384.58 282.063 393.723Z" fill="url(#paint1_linear_685_128)"/>
<path d="M282.064 394.176V546.856C282.064 558.513 275.893 569.027 265.836 574.969L150.869 641.252C113.842 619.768 76.586 598.511 39.5588 577.026C28.8163 570.855 28.8163 555.313 39.5588 548.913L175.554 470.287L267.665 418.403C277.264 413.375 282.064 403.775 282.064 394.176Z" fill="white"/>
<path d="M499.199 657.937L469.029 675.079L354.976 740.677C344.919 746.391 332.805 746.391 322.749 740.677L297.835 726.278L178.754 657.709L309.492 582.054L338.748 565.141L338.977 564.912L339.205 565.141L368.461 582.054L499.199 657.937Z" fill="white"/>
<path d="M339.205 565.141V565.369L338.977 565.141H339.205Z" fill="white"/>
</g>
<defs>
<linearGradient id="paint0_linear_685_128" x1="556.195" y1="332.638" x2="409.137" y2="598.744" gradientUnits="userSpaceOnUse">
<stop stop-color="white"/>
<stop offset="0.8461"/>
</linearGradient>
<linearGradient id="paint1_linear_685_128" x1="121.973" y1="331.978" x2="264.363" y2="597.306" gradientUnits="userSpaceOnUse">
<stop stop-color="white"/>
<stop offset="0.8461"/>
</linearGradient>
<clipPath id="clip0_685_128">
<rect width="4348" height="764" fill="white"/>
</clipPath>
</defs>
</svg>
